<svg class="lds-spinner" width="100%" height="100%" xmlns="http://www.w3.org/2000/svg" xmlns:xlink="http://www.w3.org/1999/xlink" viewBox="0 0 100 100" preserveAspectRatio="xMidYMid"><g transform="rotate(0 50 50)">
  <rect x="49.25" y="39.25" rx="49.25" ry="39.25" width="1.5" height="1.5" fill="#3cb3e4">
    <animate attributeName="opacity" values="1;0" times="0;1" dur="0.9s" begin="-0.84s" repeatCount="indefinite"></animate>
  </rect>
</g><g transform="rotate(24 50 50)">
  <rect x="49.25" y="39.25" rx="49.25" ry="39.25" width="1.5" height="1.5" fill="#3cb3e4">
    <animate attributeName="opacity" values="1;0" times="0;1" dur="0.9s" begin="-0.78s" repeatCount="indefinite"></animate>
  </rect>
</g><g transform="rotate(48 50 50)">
  <rect x="49.25" y="39.25" rx="49.25" ry="39.25" width="1.5" height="1.5" fill="#3cb3e4">
    <animate attributeName="opacity" values="1;0" times="0;1" dur="0.9s" begin="-0.7200000000000001s" repeatCount="indefinite"></animate>
  </rect>
</g><g transform="rotate(72 50 50)">
  <rect x="49.25" y="39.25" rx="49.25" ry="39.25" width="1.5" height="1.5" fill="#3cb3e4">
    <animate attributeName="opacity" values="1;0" times="0;1" dur="0.9s" begin="-0.66s" repeatCount="indefinite"></animate>
  </rect>
</g><g transform="rotate(96 50 50)">
  <rect x="49.25" y="39.25" rx="49.25" ry="39.25" width="1.5" height="1.5" fill="#3cb3e4">
    <animate attributeName="opacity" values="1;0" times="0;1" dur="0.9s" begin="-0.6s" repeatCount="indefinite"></animate>
  </rect>
</g><g transform="rotate(120 50 50)">
  <rect x="49.25" y="39.25" rx="49.25" ry="39.25" width="1.5" height="1.5" fill="#3cb3e4">
    <animate attributeName="opacity" values="1;0" times="0;1" dur="0.9s" begin="-0.5399999999999999s" repeatCount="indefinite"></animate>
  </rect>
</g><g transform="rotate(144 50 50)">
  <rect x="49.25" y="39.25" rx="49.25" ry="39.25" width="1.5" height="1.5" fill="#3cb3e4">
    <animate attributeName="opacity" values="1;0" times="0;1" dur="0.9s" begin="-0.48000000000000004s" repeatCount="indefinite"></animate>
  </rect>
</g><g transform="rotate(168 50 50)">
  <rect x="49.25" y="39.25" rx="49.25" ry="39.25" width="1.5" height="1.5" fill="#3cb3e4">
    <animate attributeName="opacity" values="1;0" times="0;1" dur="0.9s" begin="-0.42s" repeatCount="indefinite"></animate>
  </rect>
</g><g transform="rotate(192 50 50)">
  <rect x="49.25" y="39.25" rx="49.25" ry="39.25" width="1.5" height="1.5" fill="#3cb3e4">
    <animate attributeName="opacity" values="1;0" times="0;1" dur="0.9s" begin="-0.36000000000000004s" repeatCount="indefinite"></animate>
  </rect>
</g><g transform="rotate(216 50 50)">
  <rect x="49.25" y="39.25" rx="49.25" ry="39.25" width="1.5" height="1.5" fill="#3cb3e4">
    <animate attributeName="opacity" values="1;0" times="0;1" dur="0.9s" begin="-0.3s" repeatCount="indefinite"></animate>
  </rect>
</g><g transform="rotate(240 50 50)">
  <rect x="49.25" y="39.25" rx="49.25" ry="39.25" width="1.5" height="1.5" fill="#3cb3e4">
    <animate attributeName="opacity" values="1;0" times="0;1" dur="0.9s" begin="-0.24000000000000002s" repeatCount="indefinite"></animate>
  </rect>
</g><g transform="rotate(264 50 50)">
  <rect x="49.25" y="39.25" rx="49.25" ry="39.25" width="1.5" height="1.5" fill="#3cb3e4">
    <animate attributeName="opacity" values="1;0" times="0;1" dur="0.9s" begin="-0.18000000000000002s" repeatCount="indefinite"></animate>
  </rect>
</g><g transform="rotate(288 50 50)">
  <rect x="49.25" y="39.25" rx="49.25" ry="39.25" width="1.5" height="1.5" fill="#3cb3e4">
    <animate attributeName="opacity" values="1;0" times="0;1" dur="0.9s" begin="-0.12000000000000001s" repeatCount="indefinite"></animate>
  </rect>
</g><g transform="rotate(312 50 50)">
  <rect x="49.25" y="39.25" rx="49.25" ry="39.25" width="1.5" height="1.5" fill="#3cb3e4">
    <animate attributeName="opacity" values="1;0" times="0;1" dur="0.9s" begin="-0.060000000000000005s" repeatCount="indefinite"></animate>
  </rect>
</g><g transform="rotate(336 50 50)">
  <rect x="49.25" y="39.25" rx="49.25" ry="39.25" width="1.5" height="1.5" fill="#3cb3e4">
    <animate attributeName="opacity" values="1;0" times="0;1" dur="0.9s" begin="0s" repeatCount="indefinite"></animate>
  </rect>
</g></svg>
