<?xml version="1.0" encoding="UTF-8"?>
<svg width="300px" height="283px" viewBox="0 0 300 283" version="1.1" xmlns="http://www.w3.org/2000/svg" xmlns:xlink="http://www.w3.org/1999/xlink">
    <!-- Generator: Sketch 56.2 (81672) - https://sketch.com -->
    <title>Group 9</title>
    <desc>Created with Sketch.</desc>
    <defs>
        <polygon id="path-1" points="0 268 192.022 268 192.022 0.689 0 0.689"></polygon>
    </defs>
    <g id="Page-1" stroke="none" stroke-width="1" fill="none" fill-rule="evenodd">
        <g id="Group-9" transform="translate(0.000000, -3.000000)">
            <text id="Entrepreneurship-Cou-Copy-3" font-family="TruenoLt, sans-serif" font-size="8" font-weight="300" line-spacing="12" fill="#000000">
                <tspan x="125" y="8">Entrepreneurship Course through American </tspan>
                <tspan x="125" y="20">University of Armenia (AUA) Extension </tspan>
                <tspan x="125" y="32">Program with interactive learning tools, </tspan>
                <tspan x="125" y="44">guest speakers, and workshops.</tspan>
            </text>
            <text id="Expert-assistance-in-Copy-3" font-family="TruenoLt, sans-serif" font-size="8" font-weight="300" line-spacing="12" fill="#000000">
                <tspan x="175" y="72">Expert assistance in developing </tspan>
                <tspan x="175" y="84">business plans and marketing </tspan>
                <tspan x="175" y="96">strategies. </tspan>
            </text>
            <text id="Winners-of-a-pitch-b-Copy-3" font-family="TruenoLt, sans-serif" font-size="8" font-weight="300" line-spacing="12" fill="#000000">
                <tspan x="197" y="131">Winners of a pitch battle </tspan>
                <tspan x="197" y="143">are awarded up to $3500 </tspan>
                <tspan x="197" y="155">for start-up or scale-up </tspan>
                <tspan x="197" y="167">enterprises.</tspan>
            </text>
            <text id="Women’s-solidarity-networking-opportunities.-Copy-2" font-family="TruenoLt, sans-serif" font-size="8" font-weight="300" line-spacing="12" letter-spacing="-0.4368" fill="#000000">
                <tspan x="180" y="215">W</tspan>
                <tspan x="187.3072" y="215">ome</tspan>
                <tspan x="205.3072" y="215" letter-spacing="-0.4352">n</tspan>
                <tspan x="210.12" y="215">’s solidarity networking </tspan>
                <tspan x="180" y="227">opportunities.</tspan>
            </text>
            <text id="Periodic-check-ins-d-Copy" font-family="TruenoLt, sans-serif" font-size="8" font-weight="300" line-spacing="12" letter-spacing="-0.4368" fill="#000000">
                <tspan x="125" y="263">Periodic check-ins during and after completion of </tspan>
                <tspan x="125" y="275">program. </tspan>
            </text>
            <g id="Group-78-Copy" transform="translate(0.000000, 17.000000)">
                <polygon id="Fill-1" fill="#BBBDBF" points="80.9944 220.4924 65.2344 188.9254 68.8054 187.1414 84.5654 218.7094"></polygon>
                <polygon id="Fill-2" fill="#BBBDBF" points="113.517 132.22 141.965 132.22 141.965 128.228 113.517 128.228"></polygon>
                <polygon id="Fill-3" fill="#BBBDBF" points="125.7117 185.6252 103.0687 167.1712 105.5907 164.0772 128.2337 182.5312"></polygon>
                <polygon id="Fill-4" fill="#BBBDBF" points="72.3636 78.7825 68.7926 76.9995 83.3956 47.7495 86.9666 49.5325"></polygon>
                <polygon id="Fill-5" fill="#BBBDBF" points="105.7088 103.0081 103.2378 99.8731 125.5938 82.2531 128.0638 85.3881"></polygon>
                <g id="Group-77" transform="translate(0.000000, 0.311000)">
                    <path d="M84.9422,24.8855 C84.7182,24.6945 84.4802,24.5505 84.2292,24.4545 C83.9802,24.3595 83.7162,24.3115 83.4402,24.3115 C82.9062,24.3115 82.4712,24.4825 82.1362,24.8245 C81.8012,25.1675 81.6342,25.6125 81.6342,26.1565 C81.6342,26.6855 81.7972,27.1195 82.1232,27.4625 C82.4492,27.8055 82.8602,27.9775 83.3572,27.9775 C83.6462,27.9775 83.9212,27.9255 84.1832,27.8235 C84.4442,27.7205 84.6952,27.5665 84.9362,27.3595 L84.9362,28.2575 C84.7222,28.4105 84.4892,28.5265 84.2382,28.6015 C83.9862,28.6765 83.7142,28.7145 83.4202,28.7145 C83.0462,28.7145 82.7012,28.6545 82.3832,28.5315 C82.0662,28.4085 81.7872,28.2285 81.5472,27.9905 C81.3092,27.7565 81.1262,27.4815 80.9982,27.1635 C80.8702,26.8465 80.8062,26.5085 80.8062,26.1515 C80.8062,25.7925 80.8702,25.4555 80.9982,25.1415 C81.1262,24.8255 81.3112,24.5495 81.5542,24.3115 C81.7962,24.0705 82.0752,23.8895 82.3892,23.7655 C82.7022,23.6415 83.0412,23.5795 83.4062,23.5795 C83.6942,23.5795 83.9672,23.6215 84.2282,23.7055 C84.4892,23.7885 84.7412,23.9145 84.9862,24.0835 L84.9422,24.8855 Z" id="Fill-6" fill="#231F20"></path>
                    <polygon id="Fill-8" fill="#231F20" points="85.9275 28.5847 85.9275 23.6967 86.7215 23.6967 86.7215 27.8727 88.4985 27.8727 88.4985 28.5847"></polygon>
                    <path d="M90.1741,26.6648 L91.5361,26.6648 L91.0351,25.5498 C91.0071,25.4778 90.9761,25.3968 90.9451,25.3048 C90.9141,25.2118 90.8831,25.1088 90.8521,24.9958 C90.8251,25.1028 90.7971,25.2018 90.7661,25.2948 C90.7361,25.3868 90.7061,25.4718 90.6751,25.5498 L90.1741,26.6648 Z M92.3711,28.5848 L91.8171,27.3258 L89.8801,27.3258 L89.3131,28.5848 L88.4781,28.5848 L90.8451,23.5038 L93.2091,28.5848 L92.3711,28.5848 Z" id="Fill-10" fill="#231F20"></path>
                    <path d="M93.3894,27.6062 L94.0244,27.3122 C94.0834,27.5302 94.1944,27.6972 94.3544,27.8112 C94.5144,27.9262 94.7194,27.9842 94.9684,27.9842 C95.2044,27.9842 95.3914,27.9182 95.5314,27.7872 C95.6704,27.6552 95.7404,27.4802 95.7404,27.2592 C95.7404,26.9722 95.5014,26.7162 95.0254,26.4912 C94.9584,26.4582 94.9074,26.4332 94.8714,26.4182 C94.3334,26.1552 93.9744,25.9182 93.7954,25.7062 C93.6164,25.4932 93.5264,25.2322 93.5264,24.9252 C93.5264,24.5272 93.6614,24.2052 93.9314,23.9582 C94.2024,23.7102 94.5564,23.5862 94.9944,23.5862 C95.3554,23.5862 95.6574,23.6562 95.8994,23.7952 C96.1424,23.9342 96.3104,24.1342 96.4044,24.3942 L95.7834,24.7152 C95.6844,24.5612 95.5774,24.4492 95.4614,24.3772 C95.3444,24.3072 95.2094,24.2712 95.0584,24.2712 C94.8454,24.2712 94.6754,24.3272 94.5494,24.4382 C94.4244,24.5492 94.3614,24.6992 94.3614,24.8852 C94.3614,25.1792 94.6364,25.4532 95.1894,25.7072 C95.2314,25.7272 95.2644,25.7432 95.2894,25.7532 C95.7714,25.9762 96.1034,26.1942 96.2844,26.4062 C96.4644,26.6192 96.5554,26.8842 96.5554,27.2032 C96.5554,27.6662 96.4084,28.0332 96.1174,28.3052 C95.8254,28.5792 95.4314,28.7142 94.9354,28.7142 C94.5194,28.7142 94.1784,28.6192 93.9114,28.4272 C93.6454,28.2362 93.4724,27.9622 93.3894,27.6062" id="Fill-12" fill="#231F20"></path>
                    <path d="M97.1419,27.6062 L97.7769,27.3122 C97.8359,27.5302 97.9469,27.6972 98.1069,27.8112 C98.2669,27.9262 98.4719,27.9842 98.7209,27.9842 C98.9569,27.9842 99.1449,27.9182 99.2839,27.7872 C99.4229,27.6552 99.4929,27.4802 99.4929,27.2592 C99.4929,26.9722 99.2539,26.7162 98.7779,26.4912 C98.7109,26.4582 98.6599,26.4332 98.6239,26.4182 C98.0859,26.1552 97.7269,25.9182 97.5479,25.7062 C97.3689,25.4932 97.2789,25.2322 97.2789,24.9252 C97.2789,24.5272 97.4139,24.2052 97.6849,23.9582 C97.9549,23.7102 98.3099,23.5862 98.7479,23.5862 C99.1079,23.5862 99.4109,23.6562 99.6529,23.7952 C99.8959,23.9342 100.0639,24.1342 100.1579,24.3942 L99.5359,24.7152 C99.4379,24.5612 99.3309,24.4492 99.2139,24.3772 C99.0979,24.3072 98.9629,24.2712 98.8119,24.2712 C98.5979,24.2712 98.4279,24.3272 98.3029,24.4382 C98.1769,24.5492 98.1139,24.6992 98.1139,24.8852 C98.1139,25.1792 98.3899,25.4532 98.9419,25.7072 C98.9839,25.7272 99.0179,25.7432 99.0419,25.7532 C99.5249,25.9762 99.8559,26.1942 100.0369,26.4062 C100.2169,26.6192 100.3079,26.8842 100.3079,27.2032 C100.3079,27.6662 100.1609,28.0332 99.8699,28.3052 C99.5789,28.5792 99.1839,28.7142 98.6879,28.7142 C98.2719,28.7142 97.9309,28.6192 97.6649,28.4272 C97.3989,28.2362 97.2249,27.9622 97.1419,27.6062" id="Fill-14" fill="#231F20"></path>
                    <polygon id="Fill-16" fill="#231F20" points="101.1751 28.5847 101.1751 23.6967 103.9041 23.6967 103.9041 24.3707 101.9701 24.3707 101.9701 25.5967 103.9041 25.5967 103.9041 26.2937 101.9701 26.2937 101.9701 27.8727 103.9041 27.8727 103.9041 28.5847"></polygon>
                    <path d="M104.534,27.6062 L105.169,27.3122 C105.228,27.5302 105.339,27.6972 105.499,27.8112 C105.659,27.9262 105.864,27.9842 106.113,27.9842 C106.349,27.9842 106.537,27.9182 106.676,27.7872 C106.815,27.6552 106.885,27.4802 106.885,27.2592 C106.885,26.9722 106.646,26.7162 106.17,26.4912 C106.103,26.4582 106.052,26.4332 106.016,26.4182 C105.478,26.1552 105.119,25.9182 104.94,25.7062 C104.761,25.4932 104.671,25.2322 104.671,24.9252 C104.671,24.5272 104.806,24.2052 105.076,23.9582 C105.347,23.7102 105.702,23.5862 106.14,23.5862 C106.5,23.5862 106.802,23.6562 107.045,23.7952 C107.287,23.9342 107.456,24.1342 107.549,24.3942 L106.928,24.7152 C106.83,24.5612 106.722,24.4492 106.606,24.3772 C106.489,24.3072 106.355,24.2712 106.204,24.2712 C105.99,24.2712 105.82,24.3272 105.695,24.4382 C105.569,24.5492 105.506,24.6992 105.506,24.8852 C105.506,25.1792 105.782,25.4532 106.334,25.7072 C106.376,25.7272 106.409,25.7432 106.434,25.7532 C106.917,25.9762 107.248,26.1942 107.429,26.4062 C107.609,26.6192 107.7,26.8842 107.7,27.2032 C107.7,27.6662 107.553,28.0332 107.262,28.3052 C106.97,28.5792 106.576,28.7142 106.08,28.7142 C105.664,28.7142 105.323,28.6192 105.056,28.4272 C104.79,28.2362 104.617,27.9622 104.534,27.6062" id="Fill-18" fill="#231F20"></path>
                    <path d="M162.3552,122.7332 C162.3472,122.6992 162.3342,122.6072 162.3162,122.4552 C162.3002,122.3282 162.2862,122.2232 162.2742,122.1402 C162.2562,122.2402 162.2312,122.3372 162.1992,122.4362 C162.1662,122.5362 162.1262,122.6352 162.0762,122.7392 L160.9412,125.0482 L159.8072,122.6912 C159.7602,122.5952 159.7192,122.5012 159.6852,122.4102 C159.6502,122.3192 159.6202,122.2292 159.5942,122.1402 C159.5922,122.2312 159.5852,122.3272 159.5722,122.4262 C159.5592,122.5262 159.5402,122.6292 159.5152,122.7392 L159.0492,124.8742 L158.4002,124.8742 L159.4252,120.3552 L160.7052,123.0902 C160.7252,123.1342 160.7552,123.2072 160.7952,123.3072 C160.8352,123.4082 160.8852,123.5332 160.9412,123.6802 C160.9832,123.5562 161.0482,123.3982 161.1372,123.2072 C161.1612,123.1562 161.1792,123.1162 161.1912,123.0882 L162.4402,120.3552 L163.4892,124.8742 L162.8342,124.8742 L162.3552,122.7332 Z" id="Fill-20" fill="#231F20"></path>
                    <mask id="mask-2" fill="white">
                        <use xlink:href="#path-1"></use>
                    </mask>
                    <g id="Clip-23"></g>
                    <polygon id="Fill-22" fill="#231F20" mask="url(#mask-2)" points="164.063 124.874 164.768 124.874 164.768 120.538 164.063 120.538"></polygon>
                    <path d="M165.781,124.8738 L165.781,120.3668 L168.535,123.0178 C168.611,123.0928 168.687,123.1718 168.764,123.2578 C168.841,123.3428 168.922,123.4378 169.007,123.5448 L169.007,120.5378 L169.658,120.5378 L169.658,125.0428 L166.847,122.3458 C166.772,122.2718 166.699,122.1948 166.63,122.1138 C166.56,122.0328 166.493,121.9478 166.43,121.8588 L166.43,124.8738 L165.781,124.8738 Z" id="Fill-24" fill="#231F20" mask="url(#mask-2)"></path>
                    <polygon id="Fill-25" fill="#231F20" mask="url(#mask-2)" points="170.665 124.874 171.37 124.874 171.37 120.538 170.665 120.538"></polygon>
                    <path d="M156.2166,129.9314 L157.9336,129.9314 C157.9336,129.9614 157.9356,130.0024 157.9376,130.0554 C157.9436,130.1964 157.9456,130.2904 157.9456,130.3404 C157.9456,130.9514 157.7716,131.4234 157.4216,131.7614 C157.0716,132.0994 156.5796,132.2684 155.9436,132.2684 C155.5886,132.2684 155.2716,132.2154 154.9936,132.1114 C154.7156,132.0064 154.4706,131.8484 154.2616,131.6374 C154.0566,131.4274 153.8986,131.1824 153.7896,130.9004 C153.6796,130.6184 153.6246,130.3154 153.6246,129.9934 C153.6246,129.6654 153.6806,129.3644 153.7926,129.0874 C153.9036,128.8114 154.0696,128.5674 154.2886,128.3564 C154.4996,128.1484 154.7476,127.9914 155.0316,127.8814 C155.3156,127.7744 155.6196,127.7194 155.9436,127.7194 C156.2856,127.7194 156.5916,127.7814 156.8606,127.9064 C157.1306,128.0304 157.3696,128.2204 157.5816,128.4774 L157.0666,128.8654 C156.9206,128.6964 156.7556,128.5694 156.5716,128.4864 C156.3876,128.4044 156.1826,128.3624 155.9556,128.3624 C155.4866,128.3624 155.1026,128.5124 154.8056,128.8144 C154.5086,129.1154 154.3596,129.5064 154.3596,129.9884 C154.3596,130.4774 154.5086,130.8744 154.8056,131.1804 C155.1026,131.4854 155.4876,131.6374 155.9616,131.6374 C156.3646,131.6374 156.6816,131.5434 156.9126,131.3564 C157.1436,131.1684 157.2586,130.9124 157.2586,130.5884 L157.2586,130.5264 L156.2166,130.5264 L156.2166,129.9314 Z" id="Fill-26" fill="#231F20" mask="url(#mask-2)"></path>
                    <path d="M159.3914,129.6648 L159.5184,129.6648 C159.8914,129.6648 160.1404,129.6218 160.2624,129.5348 C160.3844,129.4478 160.4464,129.2938 160.4464,129.0718 C160.4464,128.8338 160.3804,128.6658 160.2484,128.5678 C160.1174,128.4708 159.8744,128.4208 159.5184,128.4208 L159.3914,128.4208 L159.3914,129.6648 Z M159.3474,130.2128 L159.3474,132.1528 L158.6864,132.1528 L158.6864,127.8168 L159.6694,127.8168 C159.9584,127.8168 160.1824,127.8358 160.3414,127.8738 C160.4994,127.9108 160.6354,127.9738 160.7474,128.0608 C160.8824,128.1638 160.9864,128.2998 161.0594,128.4658 C161.1314,128.6318 161.1684,128.8128 161.1684,129.0108 C161.1684,129.3578 161.0844,129.6308 160.9164,129.8258 C160.7494,130.0218 160.5014,130.1408 160.1734,130.1808 L161.6654,132.1528 L160.8694,132.1528 L159.4274,130.2128 L159.3474,130.2128 Z" id="Fill-27" fill="#231F20" mask="url(#mask-2)"></path>
                    <path d="M162.9988,130.45 L164.2068,130.45 L163.7628,129.461 C163.7368,129.397 163.7098,129.325 163.6838,129.243 C163.6558,129.161 163.6278,129.07 163.6008,128.969 C163.5768,129.064 163.5518,129.152 163.5238,129.234 C163.4978,129.315 163.4708,129.391 163.4428,129.461 L162.9988,130.45 Z M164.9478,132.153 L164.4568,131.036 L162.7378,131.036 L162.2348,132.153 L161.4948,132.153 L163.5938,127.645 L165.6908,132.153 L164.9478,132.153 Z" id="Fill-28" fill="#231F20" mask="url(#mask-2)"></path>
                    <path d="M166.0989,132.1531 L166.0989,127.6451 L168.8529,130.2961 C168.9289,130.3711 169.0049,130.4511 169.0819,130.5361 C169.1589,130.6211 169.2399,130.7161 169.3249,130.8231 L169.3249,127.8171 L169.9759,127.8171 L169.9759,132.3221 L167.1649,129.6241 C167.0899,129.5501 167.0169,129.4731 166.9479,129.3921 C166.8779,129.3111 166.8109,129.2261 166.7479,129.1371 L166.7479,132.1531 L166.0989,132.1531 Z" id="Fill-29" fill="#231F20" mask="url(#mask-2)"></path>
                    <polygon id="Fill-30" fill="#231F20" mask="url(#mask-2)" points="172.3723 128.4148 172.3723 132.1528 171.6673 132.1528 171.6673 128.4148 170.5153 128.4148 170.5153 127.8168 173.5183 127.8168 173.5183 128.4148"></polygon>
                    <path d="M173.8079,131.2849 L174.3709,131.0239 C174.4239,131.2179 174.5219,131.3649 174.6639,131.4669 C174.8069,131.5689 174.9879,131.6199 175.2089,131.6199 C175.4189,131.6199 175.5849,131.5609 175.7079,131.4449 C175.8309,131.3289 175.8929,131.1729 175.8929,130.9769 C175.8929,130.7229 175.6819,130.4959 175.2599,130.2959 C175.2009,130.2659 175.1549,130.2439 175.1229,130.2299 C174.6459,129.9979 174.3269,129.7869 174.1679,129.5979 C174.0089,129.4099 173.9299,129.1799 173.9299,128.9069 C173.9299,128.5539 174.0499,128.2669 174.2889,128.0489 C174.5299,127.8289 174.8439,127.7199 175.2329,127.7199 C175.5529,127.7199 175.8199,127.7809 176.0349,127.9039 C176.2509,128.0279 176.3999,128.2049 176.4829,128.4359 L175.9319,128.7209 C175.8449,128.5839 175.7499,128.4839 175.6459,128.4209 C175.5429,128.3579 175.4229,128.3269 175.2889,128.3269 C175.0999,128.3269 174.9489,128.3759 174.8379,128.4739 C174.7259,128.5729 174.6699,128.7059 174.6699,128.8709 C174.6699,129.1319 174.9149,129.3749 175.4049,129.5999 C175.4419,129.6179 175.4719,129.6319 175.4939,129.6409 C175.9219,129.8389 176.2159,130.0319 176.3759,130.2209 C176.5359,130.4089 176.6159,130.6439 176.6159,130.9269 C176.6159,131.3379 176.4859,131.6639 176.2279,131.9049 C175.9689,132.1469 175.6199,132.2679 175.1799,132.2679 C174.8099,132.2679 174.5079,132.1829 174.2719,132.0139 C174.0359,131.8439 173.8809,131.5999 173.8079,131.2849" id="Fill-31" fill="#231F20" mask="url(#mask-2)"></path>
                    <path d="M131.8982,66.156 C131.8892,66.117 131.8742,66.01 131.8532,65.834 C131.8352,65.687 131.8192,65.567 131.8052,65.471 C131.7842,65.586 131.7552,65.699 131.7182,65.813 C131.6802,65.927 131.6332,66.044 131.5762,66.163 L130.2642,68.833 L128.9532,66.108 C128.8992,65.997 128.8512,65.887 128.8122,65.783 C128.7722,65.677 128.7372,65.574 128.7072,65.471 C128.7052,65.576 128.6962,65.686 128.6812,65.802 C128.6672,65.917 128.6452,66.037 128.6152,66.163 L128.0772,68.631 L127.3272,68.631 L128.5122,63.407 L129.9912,66.57 C130.0142,66.62 130.0492,66.704 130.0952,66.82 C130.1422,66.936 130.1992,67.081 130.2642,67.251 C130.3132,67.108 130.3882,66.925 130.4912,66.704 C130.5182,66.644 130.5392,66.598 130.5522,66.566 L131.9972,63.407 L133.2092,68.631 L132.4522,68.631 L131.8982,66.156 Z" id="Fill-32" fill="#231F20" mask="url(#mask-2)"></path>
                    <polygon id="Fill-33" fill="#231F20" mask="url(#mask-2)" points="133.8591 68.6306 133.8591 63.6186 136.6561 63.6186 136.6561 64.3106 134.6731 64.3106 134.6731 65.5676 136.6561 65.5676 136.6561 66.2816 134.6731 66.2816 134.6731 67.9016 136.6561 67.9016 136.6561 68.6306"></polygon>
                    <path d="M137.5906,68.6306 L137.5906,63.4206 L140.7746,66.4846 C140.8616,66.5706 140.9486,66.6636 141.0386,66.7616 C141.1276,66.8596 141.2206,66.9706 141.3196,67.0946 L141.3196,63.6186 L142.0716,63.6186 L142.0716,68.8256 L138.8226,65.7076 C138.7366,65.6226 138.6526,65.5336 138.5716,65.4406 C138.4906,65.3466 138.4136,65.2486 138.3406,65.1456 L138.3406,68.6306 L137.5906,68.6306 Z" id="Fill-34" fill="#231F20" mask="url(#mask-2)"></path>
                    <polygon id="Fill-35" fill="#231F20" mask="url(#mask-2)" points="144.8425 64.3103 144.8425 68.6303 144.0275 68.6303 144.0275 64.3103 142.6955 64.3103 142.6955 63.6193 146.1675 63.6193 146.1675 64.3103"></polygon>
                    <path d="M150.8347,66.1355 C150.8347,65.8815 150.7887,65.6415 150.6957,65.4125 C150.6037,65.1845 150.4707,64.9825 150.2967,64.8035 C150.1277,64.6275 149.9327,64.4915 149.7097,64.3985 C149.4867,64.3035 149.2527,64.2555 149.0057,64.2555 C148.7597,64.2555 148.5247,64.3025 148.3037,64.3965 C148.0807,64.4895 147.8827,64.6255 147.7087,64.8035 C147.5357,64.9795 147.4027,65.1815 147.3117,65.4085 C147.2207,65.6375 147.1747,65.8795 147.1747,66.1355 C147.1747,66.3885 147.2207,66.6285 147.3117,66.8545 C147.4027,67.0805 147.5357,67.2815 147.7087,67.4595 C147.8827,67.6385 148.0797,67.7745 148.3007,67.8675 C148.5227,67.9605 148.7577,68.0085 149.0057,68.0085 C149.2507,68.0085 149.4827,67.9605 149.7027,67.8675 C149.9227,67.7745 150.1217,67.6385 150.2967,67.4595 C150.4707,67.2815 150.6037,67.0795 150.6957,66.8525 C150.7887,66.6255 150.8347,66.3865 150.8347,66.1355 M151.6837,66.1355 C151.6837,66.4905 151.6167,66.8275 151.4837,67.1455 C151.3497,67.4625 151.1547,67.7445 150.8997,67.9945 C150.6417,68.2425 150.3507,68.4335 150.0267,68.5665 C149.7027,68.6985 149.3617,68.7645 149.0057,68.7645 C148.6457,68.7645 148.3017,68.6985 147.9737,68.5645 C147.6467,68.4305 147.3567,68.2405 147.1057,67.9945 C146.8507,67.7445 146.6567,67.4635 146.5247,67.1485 C146.3927,66.8335 146.3257,66.4955 146.3257,66.1355 C146.3257,65.7775 146.3927,65.4395 146.5247,65.1215 C146.6567,64.8045 146.8507,64.5205 147.1057,64.2695 C147.3617,64.0205 147.6517,63.8315 147.9767,63.7005 C148.2997,63.5715 148.6437,63.5055 149.0057,63.5055 C149.3667,63.5055 149.7087,63.5715 150.0317,63.7005 C150.3547,63.8315 150.6447,64.0205 150.8997,64.2695 C151.1547,64.5235 151.3497,64.8085 151.4837,65.1275 C151.6167,65.4455 151.6837,65.7815 151.6837,66.1355" id="Fill-36" fill="#231F20" mask="url(#mask-2)"></path>
                    <path d="M153.4319,65.7556 L153.5789,65.7556 C154.0109,65.7556 154.2969,65.7046 154.4389,65.6046 C154.5799,65.5036 154.6509,65.3256 154.6509,65.0696 C154.6509,64.7946 154.5749,64.5996 154.4229,64.4866 C154.2709,64.3736 153.9899,64.3176 153.5789,64.3176 L153.4319,64.3176 L153.4319,65.7556 Z M153.3809,66.3886 L153.3809,68.6306 L152.6179,68.6306 L152.6179,63.6186 L153.7539,63.6186 C154.0879,63.6186 154.3459,63.6406 154.5299,63.6846 C154.7139,63.7276 154.8699,63.7996 154.9999,63.9006 C155.1559,64.0206 155.2759,64.1766 155.3599,64.3686 C155.4439,64.5606 155.4869,64.7706 155.4869,64.9986 C155.4869,65.4006 155.3899,65.7156 155.1959,65.9416 C155.0019,66.1686 154.7149,66.3056 154.3359,66.3516 L156.0609,68.6306 L155.1399,68.6306 L153.4739,66.3886 L153.3809,66.3886 Z" id="Fill-37" fill="#231F20" mask="url(#mask-2)"></path>
                    <path d="M156.2566,67.6277 L156.9076,67.3267 C156.9686,67.5497 157.0826,67.7207 157.2456,67.8387 C157.4106,67.9567 157.6206,68.0157 157.8756,68.0157 C158.1176,68.0157 158.3106,67.9467 158.4526,67.8137 C158.5956,67.6787 158.6666,67.4977 158.6666,67.2727 C158.6666,66.9777 158.4226,66.7157 157.9346,66.4837 C157.8656,66.4497 157.8136,66.4247 157.7766,66.4087 C157.2246,66.1397 156.8566,65.8967 156.6726,65.6787 C156.4886,65.4607 156.3966,65.1937 156.3966,64.8787 C156.3966,64.4707 156.5356,64.1397 156.8136,63.8867 C157.0906,63.6327 157.4536,63.5057 157.9026,63.5057 C158.2726,63.5057 158.5826,63.5777 158.8306,63.7207 C159.0806,63.8627 159.2526,64.0677 159.3486,64.3347 L158.7116,64.6627 C158.6106,64.5057 158.5006,64.3907 158.3816,64.3167 C158.2616,64.2447 158.1236,64.2077 157.9686,64.2077 C157.7496,64.2077 157.5756,64.2657 157.4466,64.3787 C157.3176,64.4927 157.2526,64.6467 157.2526,64.8377 C157.2526,65.1387 157.5356,65.4197 158.1026,65.6807 C158.1456,65.7007 158.1796,65.7167 158.2046,65.7287 C158.6996,65.9557 159.0396,66.1797 159.2246,66.3977 C159.4096,66.6147 159.5026,66.8877 159.5026,67.2137 C159.5026,67.6897 159.3526,68.0647 159.0536,68.3457 C158.7546,68.6247 158.3506,68.7647 157.8416,68.7647 C157.4156,68.7647 157.0656,68.6657 156.7926,68.4707 C156.5196,68.2737 156.3406,67.9927 156.2566,67.6277" id="Fill-38" fill="#231F20" mask="url(#mask-2)"></path>
                    <path d="M130.8323,199.9695 L130.8323,195.3305 L133.6673,198.0585 C133.7443,198.1355 133.8223,198.2175 133.9023,198.3055 C133.9813,198.3935 134.0643,198.4905 134.1513,198.6015 L134.1513,195.5075 L134.8223,195.5075 L134.8223,200.1435 L131.9303,197.3665 C131.8523,197.2915 131.7773,197.2115 131.7063,197.1285 C131.6343,197.0455 131.5653,196.9575 131.5003,196.8665 L131.5003,199.9695 L130.8323,199.9695 Z" id="Fill-39" fill="#231F20" mask="url(#mask-2)"></path>
                    <polygon id="Fill-40" fill="#231F20" mask="url(#mask-2)" points="135.8465 199.9695 135.8465 195.5075 138.3365 195.5075 138.3365 196.1225 136.5715 196.1225 136.5715 197.2415 138.3365 197.2415 138.3365 197.8785 136.5715 197.8785 136.5715 199.3205 138.3365 199.3205 138.3365 199.9695"></polygon>
                    <polygon id="Fill-41" fill="#231F20" mask="url(#mask-2)" points="140.6101 196.1228 140.6101 199.9698 139.8851 199.9698 139.8851 196.1228 138.6991 196.1228 138.6991 195.5078 141.7901 195.5078 141.7901 196.1228"></polygon>
                    <path d="M141.8137,195.5076 L142.5297,195.5076 L143.3737,197.7596 C143.4287,197.9076 143.4747,198.0376 143.5127,198.1506 C143.5497,198.2616 143.5837,198.3656 143.6117,198.4636 C143.6827,198.2286 143.7567,197.9966 143.8347,197.7726 C143.8437,197.7426 143.8517,197.7246 143.8557,197.7146 L144.7517,195.3306 L145.6957,197.7596 C145.7407,197.8776 145.7827,197.9946 145.8227,198.1126 C145.8627,198.2316 145.8997,198.3506 145.9347,198.4696 C145.9547,198.3786 145.9817,198.2786 146.0167,198.1676 C146.0507,198.0586 146.0957,197.9286 146.1507,197.7786 L146.9887,195.5076 L147.7107,195.5076 L145.9827,200.1436 L144.9647,197.5986 C144.9197,197.4846 144.8797,197.3756 144.8427,197.2706 C144.8067,197.1656 144.7737,197.0676 144.7457,196.9736 C144.7107,197.0936 144.6757,197.2056 144.6427,197.3106 C144.6077,197.4146 144.5717,197.5146 144.5347,197.6106 L143.5357,200.1436 L141.8137,195.5076 Z" id="Fill-42" fill="#231F20" mask="url(#mask-2)"></path>
                    <path d="M152.0237,197.7478 C152.0237,197.5218 151.9817,197.3078 151.8997,197.1048 C151.8177,196.9008 151.6997,196.7208 151.5447,196.5618 C151.3947,196.4058 151.2197,196.2848 151.0227,196.2008 C150.8237,196.1168 150.6157,196.0748 150.3957,196.0748 C150.1767,196.0748 149.9677,196.1158 149.7697,196.1998 C149.5717,196.2828 149.3957,196.4038 149.2407,196.5618 C149.0867,196.7188 148.9687,196.8978 148.8867,197.1018 C148.8067,197.3048 148.7657,197.5198 148.7657,197.7478 C148.7657,197.9728 148.8067,198.1858 148.8867,198.3878 C148.9687,198.5888 149.0867,198.7688 149.2407,198.9268 C149.3957,199.0858 149.5707,199.2068 149.7677,199.2898 C149.9657,199.3728 150.1747,199.4148 150.3957,199.4148 C150.6137,199.4148 150.8197,199.3728 151.0157,199.2898 C151.2117,199.2068 151.3887,199.0858 151.5447,198.9268 C151.6997,198.7688 151.8177,198.5888 151.8997,198.3868 C151.9817,198.1838 152.0237,197.9718 152.0237,197.7478 M152.7787,197.7478 C152.7787,198.0638 152.7197,198.3638 152.6017,198.6458 C152.4817,198.9298 152.3087,199.1808 152.0817,199.4028 C151.8517,199.6238 151.5927,199.7938 151.3047,199.9118 C151.0157,200.0288 150.7127,200.0878 150.3957,200.0878 C150.0747,200.0878 149.7687,200.0288 149.4767,199.9098 C149.1857,199.7908 148.9277,199.6218 148.7047,199.4028 C148.4777,199.1808 148.3037,198.9308 148.1867,198.6488 C148.0687,198.3688 148.0097,198.0678 148.0097,197.7478 C148.0097,197.4288 148.0687,197.1278 148.1867,196.8458 C148.3037,196.5628 148.4777,196.3108 148.7047,196.0868 C148.9317,195.8648 149.1907,195.6968 149.4787,195.5808 C149.7677,195.4648 150.0727,195.4068 150.3957,195.4068 C150.7167,195.4068 151.0217,195.4648 151.3087,195.5808 C151.5957,195.6968 151.8547,195.8648 152.0817,196.0868 C152.3087,196.3118 152.4817,196.5658 152.6017,196.8508 C152.7197,197.1338 152.7787,197.4328 152.7787,197.7478" id="Fill-43" fill="#231F20" mask="url(#mask-2)"></path>
                    <path d="M154.3367,197.4099 L154.4677,197.4099 C154.8517,197.4099 155.1067,197.3649 155.2327,197.2749 C155.3587,197.1849 155.4217,197.0269 155.4217,196.7999 C155.4217,196.5539 155.3537,196.3809 155.2187,196.2799 C155.0837,196.1799 154.8337,196.1289 154.4677,196.1289 L154.3367,196.1289 L154.3367,197.4099 Z M154.2917,197.9719 L154.2917,199.9699 L153.6107,199.9699 L153.6107,195.5079 L154.6227,195.5079 C154.9197,195.5079 155.1497,195.5269 155.3137,195.5649 C155.4777,195.6039 155.6167,195.6679 155.7327,195.7579 C155.8707,195.8649 155.9777,196.0039 156.0527,196.1749 C156.1277,196.3459 156.1657,196.5329 156.1657,196.7349 C156.1657,197.0939 156.0797,197.3739 155.9057,197.5749 C155.7337,197.7769 155.4787,197.8989 155.1417,197.9389 L156.6767,199.9699 L155.8577,199.9699 L154.3737,197.9719 L154.2917,197.9719 Z" id="Fill-44" fill="#231F20" mask="url(#mask-2)"></path>
                    <polygon id="Fill-45" fill="#231F20" mask="url(#mask-2)" points="157.1067 199.9695 157.1067 195.5075 157.8327 195.5075 157.8327 197.3545 159.4357 195.5075 160.3217 195.5075 158.5547 197.4915 160.5327 199.9695 159.5977 199.9695 157.8327 197.6905 157.8327 199.9695"></polygon>
                    <path d="M160.721,199.076 L161.301,198.808 C161.355,199.007 161.456,199.159 161.602,199.263 C161.749,199.369 161.935,199.421 162.162,199.421 C162.378,199.421 162.55,199.36 162.677,199.241 C162.803,199.121 162.867,198.961 162.867,198.76 C162.867,198.498 162.649,198.264 162.215,198.058 C162.154,198.028 162.107,198.006 162.075,197.991 C161.583,197.752 161.255,197.535 161.092,197.341 C160.928,197.147 160.846,196.909 160.846,196.629 C160.846,196.265 160.97,195.971 161.217,195.746 C161.464,195.519 161.787,195.407 162.187,195.407 C162.516,195.407 162.792,195.471 163.013,195.597 C163.235,195.724 163.388,195.907 163.474,196.144 L162.907,196.437 C162.817,196.297 162.719,196.194 162.613,196.129 C162.506,196.064 162.383,196.032 162.245,196.032 C162.05,196.032 161.895,196.083 161.781,196.184 C161.666,196.286 161.608,196.422 161.608,196.593 C161.608,196.86 161.86,197.111 162.364,197.343 C162.403,197.361 162.433,197.375 162.456,197.386 C162.896,197.588 163.199,197.787 163.364,197.981 C163.528,198.175 163.611,198.418 163.611,198.708 C163.611,199.131 163.477,199.466 163.211,199.715 C162.945,199.964 162.585,200.088 162.133,200.088 C161.753,200.088 161.441,200.001 161.198,199.826 C160.955,199.651 160.797,199.401 160.721,199.076" id="Fill-46" fill="#231F20" mask="url(#mask-2)"></path>
                    <polygon id="Fill-47" fill="#231F20" mask="url(#mask-2)" points="80.1697 243.7947 80.1697 239.3707 82.6397 239.3707 82.6397 239.9817 80.8887 239.9817 80.8887 241.0847 82.6397 241.0847 82.6397 241.7157 80.8887 241.7157 80.8887 243.7947"></polygon>
                    <path d="M87.2054,241.5916 C87.2054,241.3676 87.1644,241.1556 87.0834,240.9546 C87.0004,240.7526 86.8844,240.5736 86.7304,240.4156 C86.5814,240.2616 86.4094,240.1416 86.2124,240.0586 C86.0164,239.9746 85.8094,239.9336 85.5914,239.9336 C85.3734,239.9336 85.1664,239.9746 84.9714,240.0566 C84.7744,240.1396 84.5994,240.2596 84.4464,240.4156 C84.2934,240.5716 84.1764,240.7496 84.0954,240.9506 C84.0154,241.1526 83.9754,241.3656 83.9754,241.5916 C83.9754,241.8156 84.0154,242.0276 84.0954,242.2266 C84.1764,242.4266 84.2934,242.6046 84.4464,242.7616 C84.5994,242.9186 84.7734,243.0386 84.9694,243.1206 C85.1644,243.2026 85.3724,243.2446 85.5914,243.2446 C85.8074,243.2446 86.0124,243.2026 86.2064,243.1206 C86.4004,243.0386 86.5754,242.9186 86.7304,242.7616 C86.8844,242.6046 87.0004,242.4256 87.0834,242.2256 C87.1644,242.0246 87.2054,241.8146 87.2054,241.5916 M87.9544,241.5916 C87.9544,241.9056 87.8954,242.2026 87.7784,242.4836 C87.6604,242.7636 87.4884,243.0126 87.2624,243.2336 C87.0354,243.4516 86.7784,243.6206 86.4924,243.7376 C86.2064,243.8546 85.9054,243.9126 85.5914,243.9126 C85.2724,243.9126 84.9694,243.8546 84.6804,243.7356 C84.3914,243.6176 84.1354,243.4496 83.9144,243.2336 C83.6884,243.0126 83.5174,242.7646 83.4014,242.4866 C83.2844,242.2076 83.2254,241.9096 83.2254,241.5916 C83.2254,241.2756 83.2844,240.9776 83.4014,240.6966 C83.5174,240.4176 83.6884,240.1666 83.9144,239.9456 C84.1404,239.7256 84.3964,239.5586 84.6824,239.4436 C84.9684,239.3276 85.2704,239.2716 85.5914,239.2716 C85.9094,239.2716 86.2114,239.3276 86.4964,239.4436 C86.7814,239.5586 87.0374,239.7256 87.2624,239.9456 C87.4884,240.1686 87.6604,240.4206 87.7784,240.7016 C87.8954,240.9836 87.9544,241.2796 87.9544,241.5916" id="Fill-48" fill="#231F20" mask="url(#mask-2)"></path>
                    <polygon id="Fill-49" fill="#231F20" mask="url(#mask-2)" points="88.7796 243.7947 88.7796 239.3707 89.4986 239.3707 89.4986 243.1507 91.1066 243.1507 91.1066 243.7947"></polygon>
                    <polygon id="Fill-50" fill="#231F20" mask="url(#mask-2)" points="91.6888 243.7947 91.6888 239.3707 92.4088 239.3707 92.4088 243.1507 94.0158 243.1507 94.0158 243.7947"></polygon>
                    <path d="M98.1697,241.5916 C98.1697,241.3676 98.1287,241.1556 98.0467,240.9546 C97.9647,240.7526 97.8477,240.5736 97.6947,240.4156 C97.5457,240.2616 97.3727,240.1416 97.1767,240.0586 C96.9797,239.9746 96.7737,239.9336 96.5557,239.9336 C96.3377,239.9336 96.1307,239.9746 95.9347,240.0566 C95.7387,240.1396 95.5637,240.2596 95.4097,240.4156 C95.2567,240.5716 95.1407,240.7496 95.0597,240.9506 C94.9797,241.1526 94.9397,241.3656 94.9397,241.5916 C94.9397,241.8156 94.9797,242.0276 95.0597,242.2266 C95.1407,242.4266 95.2567,242.6046 95.4097,242.7616 C95.5637,242.9186 95.7377,243.0386 95.9327,243.1206 C96.1287,243.2026 96.3367,243.2446 96.5557,243.2446 C96.7717,243.2446 96.9757,243.2026 97.1697,243.1206 C97.3647,243.0386 97.5397,242.9186 97.6947,242.7616 C97.8477,242.6046 97.9647,242.4256 98.0467,242.2256 C98.1287,242.0246 98.1697,241.8146 98.1697,241.5916 M98.9187,241.5916 C98.9187,241.9056 98.8597,242.2026 98.7427,242.4836 C98.6237,242.7636 98.4527,243.0126 98.2267,243.2336 C97.9997,243.4516 97.7427,243.6206 97.4567,243.7376 C97.1697,243.8546 96.8697,243.9126 96.5557,243.9126 C96.2367,243.9126 95.9337,243.8546 95.6447,243.7356 C95.3557,243.6176 95.0997,243.4496 94.8787,243.2336 C94.6527,243.0126 94.4817,242.7646 94.3647,242.4866 C94.2477,242.2076 94.1897,241.9096 94.1897,241.5916 C94.1897,241.2756 94.2477,240.9776 94.3647,240.6966 C94.4817,240.4176 94.6527,240.1666 94.8787,239.9456 C95.1037,239.7256 95.3597,239.5586 95.6467,239.4436 C95.9327,239.3276 96.2347,239.2716 96.5557,239.2716 C96.8737,239.2716 97.1757,239.3276 97.4607,239.4436 C97.7457,239.5586 98.0017,239.7256 98.2267,239.9456 C98.4527,240.1686 98.6237,240.4206 98.7427,240.7016 C98.8597,240.9836 98.9187,241.2796 98.9187,241.5916" id="Fill-51" fill="#231F20" mask="url(#mask-2)"></path>
                    <path d="M99.218,239.3709 L99.928,239.3709 L100.765,241.6039 C100.82,241.7509 100.865,241.8799 100.903,241.9909 C100.94,242.1009 100.973,242.2059 101.001,242.3019 C101.071,242.0679 101.145,241.8399 101.222,241.6159 C101.231,241.5879 101.239,241.5689 101.243,241.5589 L102.131,239.1949 L103.068,241.6039 C103.112,241.7209 103.154,241.8379 103.194,241.9549 C103.233,242.0709 103.269,242.1889 103.304,242.3079 C103.324,242.2179 103.351,242.1179 103.385,242.0089 C103.42,241.8999 103.464,241.7709 103.518,241.6219 L104.349,239.3709 L105.065,239.3709 L103.352,243.9669 L102.343,241.4439 C102.299,241.3309 102.258,241.2239 102.222,241.1189 C102.185,241.0159 102.153,240.9169 102.125,240.8239 C102.091,240.9429 102.056,241.0549 102.023,241.1579 C101.988,241.2629 101.952,241.3609 101.916,241.4559 L100.925,243.9669 L99.218,239.3709 Z" id="Fill-52" fill="#231F20" mask="url(#mask-2)"></path>
                    <path d="M51.0911,109.408 L52.3511,114.175 C52.4101,114.388 52.4661,114.613 52.5161,114.845 C52.5661,115.078 52.6181,115.345 52.6731,115.646 C52.7421,115.29 52.8001,114.997 52.8481,114.766 C52.8961,114.536 52.9431,114.339 52.9881,114.175 L54.1661,109.408 L56.9261,109.408 L54.0911,119.433 L51.5571,119.433 L50.3181,115.154 C50.2721,115.003 50.1961,114.708 50.0911,114.27 C50.0461,114.074 50.0091,113.921 49.9821,113.811 C49.9591,113.907 49.9271,114.042 49.8861,114.216 C49.7811,114.658 49.7011,114.97 49.6461,115.154 L48.4271,119.433 L45.8861,119.433 L43.0581,109.408 L45.8181,109.408 L46.9691,114.202 C47.0241,114.448 47.0771,114.694 47.1301,114.941 C47.1821,115.188 47.2311,115.441 47.2771,115.701 C47.3181,115.51 47.3621,115.309 47.4101,115.098 C47.4591,114.889 47.5301,114.59 47.6261,114.202 L48.8861,109.408 L51.0911,109.408 Z" id="Fill-53" fill="#1A988B" mask="url(#mask-2)"></path>
                    <path d="M55.8923,118.3113 C55.8923,117.9223 56.0233,117.5953 56.2863,117.3323 C56.5483,117.0663 56.8743,116.9343 57.2623,116.9343 C57.6593,116.9343 57.9903,117.0663 58.2553,117.3323 C58.5193,117.5953 58.6523,117.9223 58.6523,118.3113 C58.6523,118.6993 58.5183,119.0283 58.2513,119.2963 C57.9843,119.5663 57.6543,119.7013 57.2623,119.7013 C56.8783,119.7013 56.5543,119.5663 56.2893,119.2963 C56.0253,119.0283 55.8923,118.6993 55.8923,118.3113" id="Fill-54" fill="#1A988B" mask="url(#mask-2)"></path>
                    <polygon id="Fill-55" fill="#1A988B" mask="url(#mask-2)" points="60.5222 119.4334 60.5222 109.4084 66.6652 109.4084 66.6652 111.6064 63.1862 111.6064 63.1862 113.3454 66.4662 113.3454 66.4662 115.4954 63.1862 115.4954 63.1862 117.1874 66.6652 117.1874 66.6652 119.4334"></polygon>
                    <path d="M68.472,118.3113 C68.472,117.9223 68.603,117.5953 68.866,117.3323 C69.128,117.0663 69.454,116.9343 69.842,116.9343 C70.239,116.9343 70.57,117.0663 70.835,117.3323 C71.099,117.5953 71.232,117.9223 71.232,118.3113 C71.232,118.6993 71.098,119.0283 70.831,119.2963 C70.564,119.5663 70.234,119.7013 69.842,119.7013 C69.458,119.7013 69.134,119.5663 68.869,119.2963 C68.605,119.0283 68.472,118.6993 68.472,118.3113" id="Fill-56" fill="#1A988B" mask="url(#mask-2)"></path>
                    <path d="M31.6194,128.6765 C31.1584,128.2825 30.6714,127.9895 30.1574,127.7925 C29.6434,127.5965 29.1034,127.4985 28.5374,127.4985 C27.4424,127.4985 26.5504,127.8505 25.8634,128.5525 C25.1764,129.2555 24.8324,130.1665 24.8324,131.2845 C24.8324,132.3675 25.1674,133.2605 25.8354,133.9625 C26.5044,134.6665 27.3484,135.0175 28.3674,135.0175 C28.9604,135.0175 29.5254,134.9125 30.0614,134.7025 C30.5974,134.4925 31.1134,134.1755 31.6054,133.7505 L31.6054,135.5925 C31.1674,135.9075 30.6904,136.1435 30.1744,136.2985 C29.6584,136.4535 29.0984,136.5305 28.4964,136.5305 C27.7294,136.5305 27.0214,136.4055 26.3704,136.1545 C25.7204,135.9045 25.1474,135.5335 24.6554,135.0455 C24.1664,134.5665 23.7904,134.0005 23.5284,133.3505 C23.2654,132.6995 23.1344,132.0075 23.1344,131.2715 C23.1344,130.5365 23.2654,129.8465 23.5284,129.2005 C23.7904,128.5545 24.1704,127.9875 24.6684,127.4985 C25.1654,127.0055 25.7364,126.6325 26.3804,126.3785 C27.0244,126.1255 27.7204,125.9985 28.4694,125.9985 C29.0574,125.9985 29.6194,126.0845 30.1544,126.2555 C30.6884,126.4265 31.2064,126.6855 31.7084,127.0325 L31.6194,128.6765 Z" id="Fill-57" fill="#231F20" mask="url(#mask-2)"></path>
                    <path d="M35.7966,136.2644 L35.7966,131.6754 L32.4206,126.2384 L34.1326,126.2384 L36.2346,129.6424 C36.2846,129.7294 36.3476,129.8434 36.4236,129.9844 C36.4986,130.1254 36.5746,130.2784 36.6526,130.4434 C36.7166,130.2834 36.7836,130.1324 36.8546,129.9914 C36.9256,129.8504 36.9996,129.7194 37.0776,129.6014 L39.2346,126.2384 L40.8646,126.2384 L37.4126,131.6754 L37.4126,136.2644 L35.7966,136.2644 Z" id="Fill-58" fill="#231F20" mask="url(#mask-2)"></path>
                    <path d="M49.762,128.6765 C49.301,128.2825 48.814,127.9895 48.3,127.7925 C47.786,127.5965 47.246,127.4985 46.68,127.4985 C45.585,127.4985 44.693,127.8505 44.006,128.5525 C43.319,129.2555 42.975,130.1665 42.975,131.2845 C42.975,132.3675 43.309,133.2605 43.978,133.9625 C44.647,134.6665 45.491,135.0175 46.509,135.0175 C47.102,135.0175 47.668,134.9125 48.204,134.7025 C48.74,134.4925 49.255,134.1755 49.748,133.7505 L49.748,135.5925 C49.31,135.9075 48.833,136.1435 48.317,136.2985 C47.801,136.4535 47.241,136.5305 46.639,136.5305 C45.872,136.5305 45.163,136.4055 44.513,136.1545 C43.862,135.9045 43.29,135.5335 42.797,135.0455 C42.309,134.5665 41.933,134.0005 41.671,133.3505 C41.408,132.6995 41.277,132.0075 41.277,131.2715 C41.277,130.5365 41.408,129.8465 41.671,129.2005 C41.933,128.5545 42.313,127.9875 42.811,127.4985 C43.308,127.0055 43.879,126.6325 44.523,126.3785 C45.167,126.1255 45.863,125.9985 46.612,125.9985 C47.2,125.9985 47.762,126.0845 48.296,126.2555 C48.83,126.4265 49.349,126.6855 49.851,127.0325 L49.762,128.6765 Z" id="Fill-59" fill="#231F20" mask="url(#mask-2)"></path>
                    <polygon id="Fill-60" fill="#231F20" mask="url(#mask-2)" points="51.7815 136.2644 51.7815 126.2384 53.4115 126.2384 53.4115 134.8054 57.0545 134.8054 57.0545 136.2644"></polygon>
                    <polygon id="Fill-61" fill="#231F20" mask="url(#mask-2)" points="58.3767 136.2644 58.3767 126.2384 63.9717 126.2384 63.9717 127.6214 60.0067 127.6214 60.0067 130.1344 63.9717 130.1344 63.9717 131.5664 60.0067 131.5664 60.0067 134.8054 63.9717 134.8054 63.9717 136.2644"></polygon>
                    <path d="M78.6546,131.2713 C78.6546,130.7653 78.5626,130.2833 78.3776,129.8273 C78.1926,129.3703 77.9266,128.9633 77.5796,128.6083 C77.2416,128.2553 76.8506,127.9863 76.4046,127.7963 C75.9606,127.6063 75.4906,127.5113 74.9976,127.5113 C74.5056,127.5113 74.0356,127.6063 73.5906,127.7923 C73.1456,127.9803 72.7496,128.2513 72.4026,128.6083 C72.0546,128.9593 71.7906,129.3633 71.6076,129.8203 C71.4256,130.2763 71.3336,130.7603 71.3336,131.2713 C71.3336,131.7793 71.4256,132.2573 71.6076,132.7093 C71.7906,133.1623 72.0546,133.5663 72.4026,133.9223 C72.7496,134.2783 73.1446,134.5493 73.5876,134.7373 C74.0296,134.9243 74.4996,135.0173 74.9976,135.0173 C75.4866,135.0173 75.9506,134.9243 76.3916,134.7373 C76.8316,134.5493 77.2276,134.2783 77.5796,133.9223 C77.9266,133.5663 78.1926,133.1613 78.3776,132.7073 C78.5626,132.2523 78.6546,131.7743 78.6546,131.2713 M80.3536,131.2713 C80.3536,131.9843 80.2196,132.6583 79.9526,133.2923 C79.6856,133.9263 79.2966,134.4933 78.7846,134.9903 C78.2696,135.4883 77.6876,135.8693 77.0386,136.1333 C76.3896,136.3993 75.7106,136.5313 74.9976,136.5313 C74.2766,136.5313 73.5886,136.3973 72.9326,136.1303 C72.2776,135.8643 71.6996,135.4843 71.1976,134.9903 C70.6856,134.4933 70.2976,133.9293 70.0326,133.2983 C69.7686,132.6683 69.6356,131.9933 69.6356,131.2713 C69.6356,130.5543 69.7686,129.8793 70.0326,129.2453 C70.2976,128.6103 70.6856,128.0423 71.1976,127.5393 C71.7086,127.0423 72.2886,126.6633 72.9366,126.4023 C73.5846,126.1423 74.2726,126.0123 74.9976,126.0123 C75.7186,126.0123 76.4026,126.1423 77.0496,126.4023 C77.6956,126.6633 78.2736,127.0423 78.7846,127.5393 C79.2966,128.0463 79.6856,128.6183 79.9526,129.2543 C80.2196,129.8913 80.3536,130.5643 80.3536,131.2713" id="Fill-62" fill="#231F20" mask="url(#mask-2)"></path>
                    <polygon id="Fill-63" fill="#231F20" mask="url(#mask-2)" points="82.2224 136.2644 82.2224 126.2384 87.8174 126.2384 87.8174 127.6214 83.8524 127.6214 83.8524 130.1204 87.8174 130.1204 87.8174 131.5524 83.8524 131.5524 83.8524 136.2644"></polygon>
                    <path d="M28.0178,151.0877 L29.3188,150.4837 C29.4418,150.9327 29.6678,151.2737 29.9968,151.5087 C30.3258,151.7437 30.7458,151.8607 31.2568,151.8607 C31.7408,151.8607 32.1258,151.7267 32.4108,151.4567 C32.6968,151.1887 32.8388,150.8267 32.8388,150.3757 C32.8388,149.7867 32.3508,149.2617 31.3728,148.8007 C31.2368,148.7317 31.1308,148.6817 31.0588,148.6497 C29.9538,148.1107 29.2178,147.6237 28.8498,147.1877 C28.4828,146.7517 28.2988,146.2187 28.2988,145.5877 C28.2988,144.7717 28.5758,144.1087 29.1308,143.6027 C29.6848,143.0957 30.4128,142.8417 31.3118,142.8417 C32.0518,142.8417 32.6698,142.9847 33.1668,143.2707 C33.6648,143.5557 34.0098,143.9657 34.2018,144.4997 L32.9278,145.1567 C32.7268,144.8417 32.5068,144.6107 32.2678,144.4647 C32.0278,144.3187 31.7528,144.2457 31.4418,144.2457 C31.0028,144.2457 30.6548,144.3597 30.3978,144.5887 C30.1398,144.8167 30.0108,145.1227 30.0108,145.5067 C30.0108,146.1087 30.5768,146.6707 31.7088,147.1907 C31.7958,147.2327 31.8638,147.2637 31.9138,147.2867 C32.9048,147.7427 33.5848,148.1897 33.9548,148.6257 C34.3258,149.0617 34.5098,149.6067 34.5098,150.2587 C34.5098,151.2087 34.2108,151.9627 33.6128,152.5227 C33.0148,153.0817 32.2068,153.3607 31.1888,153.3607 C30.3348,153.3607 29.6358,153.1647 29.0898,152.7727 C28.5438,152.3797 28.1868,151.8177 28.0178,151.0877" id="Fill-64" fill="#231F20" mask="url(#mask-2)"></path>
                    <path d="M36.2493,143.0681 L37.8583,143.0681 L37.8583,149.1561 C37.8583,150.0601 38.0673,150.7401 38.4853,151.1941 C38.9033,151.6481 39.5273,151.8751 40.3583,151.8751 C41.1853,151.8751 41.8073,151.6481 42.2243,151.1941 C42.6423,150.7401 42.8513,150.0601 42.8513,149.1561 L42.8513,143.0681 L44.4813,143.0681 L44.4813,149.3061 C44.4813,150.6631 44.1393,151.6771 43.4543,152.3511 C42.7693,153.0251 41.7373,153.3611 40.3583,153.3611 C38.9793,153.3611 37.9503,153.0251 37.2703,152.3541 C36.5893,151.6831 36.2493,150.6681 36.2493,149.3061 L36.2493,143.0681 Z" id="Fill-65" fill="#231F20" mask="url(#mask-2)"></path>
                    <path d="M48.3572,147.2596 L48.7752,147.2596 C49.6792,147.2596 50.2812,147.1606 50.5832,146.9646 C50.8842,146.7686 51.0352,146.4216 51.0352,145.9236 C51.0352,145.3896 50.8742,145.0126 50.5522,144.7936 C50.2302,144.5746 49.6382,144.4646 48.7752,144.4646 L48.3572,144.4646 L48.3572,147.2596 Z M48.2542,148.5946 L48.2542,153.0936 L46.7272,153.0936 L46.7272,143.0686 L49.1922,143.0686 C49.9232,143.0686 50.4612,143.1086 50.8052,143.1886 C51.1502,143.2686 51.4502,143.3996 51.7062,143.5816 C52.0212,143.8146 52.2672,144.1286 52.4452,144.5236 C52.6242,144.9186 52.7122,145.3536 52.7122,145.8276 C52.7122,146.3026 52.6242,146.7406 52.4452,147.1426 C52.2672,147.5446 52.0212,147.8596 51.7062,148.0876 C51.4502,148.2706 51.1502,148.4016 50.8052,148.4786 C50.4612,148.5566 49.9232,148.5946 49.1922,148.5946 L48.8702,148.5946 L48.2542,148.5946 Z" id="Fill-66" fill="#231F20" mask="url(#mask-2)"></path>
                    <path d="M55.822,147.2596 L56.24,147.2596 C57.144,147.2596 57.746,147.1606 58.048,146.9646 C58.349,146.7686 58.499,146.4216 58.499,145.9236 C58.499,145.3896 58.339,145.0126 58.017,144.7936 C57.695,144.5746 57.103,144.4646 56.24,144.4646 L55.822,144.4646 L55.822,147.2596 Z M55.719,148.5946 L55.719,153.0936 L54.192,153.0936 L54.192,143.0686 L56.657,143.0686 C57.388,143.0686 57.926,143.1086 58.27,143.1886 C58.615,143.2686 58.915,143.3996 59.171,143.5816 C59.486,143.8146 59.732,144.1286 59.91,144.5236 C60.089,144.9186 60.177,145.3536 60.177,145.8276 C60.177,146.3026 60.089,146.7406 59.91,147.1426 C59.732,147.5446 59.486,147.8596 59.171,148.0876 C58.915,148.2706 58.615,148.4016 58.27,148.4786 C57.926,148.5566 57.388,148.5946 56.657,148.5946 L56.335,148.5946 L55.719,148.5946 Z" id="Fill-67" fill="#231F20" mask="url(#mask-2)"></path>
                    <path d="M70.2371,148.1013 C70.2371,147.5943 70.1451,147.1133 69.9601,146.6573 C69.7751,146.2003 69.5091,145.7933 69.1621,145.4373 C68.8241,145.0853 68.4331,144.8163 67.9871,144.6253 C67.5431,144.4363 67.0731,144.3413 66.5801,144.3413 C66.0871,144.3413 65.6181,144.4353 65.1731,144.6223 C64.7281,144.8103 64.3321,145.0813 63.9851,145.4373 C63.6371,145.7893 63.3731,146.1933 63.1901,146.6503 C63.0071,147.1063 62.9161,147.5903 62.9161,148.1013 C62.9161,148.6083 63.0071,149.0873 63.1901,149.5393 C63.3731,149.9923 63.6371,150.3963 63.9851,150.7513 C64.3321,151.1083 64.7271,151.3793 65.1701,151.5673 C65.6121,151.7533 66.0821,151.8473 66.5801,151.8473 C67.0691,151.8473 67.5331,151.7533 67.9741,151.5673 C68.4141,151.3793 68.8101,151.1083 69.1621,150.7513 C69.5091,150.3963 69.7751,149.9903 69.9601,149.5363 C70.1451,149.0813 70.2371,148.6033 70.2371,148.1013 M71.9361,148.1013 C71.9361,148.8143 71.8021,149.4883 71.5351,150.1223 C71.2671,150.7563 70.8781,151.3233 70.3671,151.8203 C69.8511,152.3183 69.2691,152.6993 68.6211,152.9633 C67.9721,153.2283 67.2921,153.3613 66.5801,153.3613 C65.8591,153.3613 65.1711,153.2273 64.5151,152.9603 C63.8601,152.6933 63.2821,152.3133 62.7791,151.8203 C62.2681,151.3233 61.8801,150.7583 61.6151,150.1283 C61.3501,149.4983 61.2181,148.8233 61.2181,148.1013 C61.2181,147.3843 61.3501,146.7083 61.6151,146.0753 C61.8801,145.4403 62.2681,144.8723 62.7791,144.3693 C63.2911,143.8723 63.8711,143.4933 64.5191,143.2323 C65.1671,142.9723 65.8551,142.8413 66.5801,142.8413 C67.3011,142.8413 67.9851,142.9723 68.6311,143.2323 C69.2781,143.4933 69.8561,143.8723 70.3671,144.3693 C70.8781,144.8753 71.2671,145.4483 71.5351,146.0843 C71.8021,146.7213 71.9361,147.3943 71.9361,148.1013" id="Fill-68" fill="#231F20" mask="url(#mask-2)"></path>
                    <path d="M75.4353,147.3416 L75.7293,147.3416 C76.5923,147.3416 77.1653,147.2406 77.4483,147.0396 C77.7313,146.8396 77.8733,146.4836 77.8733,145.9716 C77.8733,145.4196 77.7223,145.0296 77.4173,144.8036 C77.1143,144.5776 76.5513,144.4646 75.7293,144.4646 L75.4353,144.4646 L75.4353,147.3416 Z M75.3323,148.6086 L75.3323,153.0936 L73.8053,153.0936 L73.8053,143.0686 L76.0793,143.0686 C76.7453,143.0686 77.2623,143.1116 77.6303,143.1976 C77.9973,143.2846 78.3113,143.4286 78.5723,143.6296 C78.8823,143.8716 79.1223,144.1846 79.2903,144.5686 C79.4593,144.9516 79.5443,145.3716 79.5443,145.8276 C79.5443,146.6316 79.3503,147.2606 78.9613,147.7146 C78.5743,148.1686 78.0013,148.4426 77.2433,148.5326 L80.6953,153.0936 L78.8523,153.0936 L75.5183,148.6086 L75.3323,148.6086 Z" id="Fill-69" fill="#231F20" mask="url(#mask-2)"></path>
                    <polygon id="Fill-70" fill="#231F20" mask="url(#mask-2)" points="84.8997 144.451 84.8997 153.094 83.2697 153.094 83.2697 144.451 80.6057 144.451 80.6057 143.068 87.5497 143.068 87.5497 144.451"></polygon>
                    <path d="M143.4802,43.1472 C138.5182,43.1472 133.7062,44.7282 129.6482,47.7392 C119.3322,55.3922 117.1652,70.0132 124.8172,80.3302 C128.5252,85.3282 133.9582,88.5832 140.1132,89.4962 C146.2692,90.4072 152.4112,88.8682 157.4092,85.1602 C167.7262,77.5062 169.8922,62.8862 162.2392,52.5702 C158.5322,47.5712 153.1002,44.3172 146.9442,43.4042 C145.7872,43.2332 144.6292,43.1472 143.4802,43.1472 M143.5842,92.8692 C142.2812,92.8692 140.9702,92.7732 139.6562,92.5782 C132.6772,91.5432 126.5192,87.8532 122.3152,82.1872 C113.6392,70.4892 116.0962,53.9142 127.7922,45.2362 C133.4592,41.0332 140.4242,39.2892 147.4012,40.3222 C154.3802,41.3562 160.5392,45.0462 164.7422,50.7122 C173.4182,62.4112 170.9622,78.9852 159.2662,87.6632 C154.6662,91.0762 149.2092,92.8692 143.5842,92.8692" id="Fill-71" fill="#1A988B" mask="url(#mask-2)"></path>
                    <path d="M165.5696,103.7449 C160.6086,103.7449 155.7966,105.3259 151.7386,108.3359 C141.4226,115.9899 139.2556,130.6099 146.9076,140.9279 C150.6156,145.9249 156.0476,149.1809 162.2036,150.0929 C168.3586,151.0049 174.5016,149.4659 179.4996,145.7579 C189.8156,138.1029 191.9826,123.4839 184.3296,113.1669 C180.6216,108.1689 175.1896,104.9139 169.0336,104.0019 C167.8766,103.8299 166.7186,103.7449 165.5696,103.7449 M165.6736,153.4659 C164.3706,153.4659 163.0596,153.3699 161.7466,153.1749 C154.7676,152.1409 148.6086,148.4509 144.4046,142.7839 C135.7286,131.0869 138.1856,114.5109 149.8816,105.8339 C155.5486,101.6299 162.5146,99.8859 169.4906,100.9189 C176.4696,101.9529 182.6286,105.6429 186.8316,111.3089 C195.5086,123.0079 193.0516,139.5829 181.3566,148.2599 C176.7556,151.6729 171.2996,153.4659 165.6736,153.4659" id="Fill-72" fill="#1A988B" mask="url(#mask-2)"></path>
                    <path d="M147.1726,174.4344 C142.2116,174.4344 137.3996,176.0154 133.3416,179.0264 C123.0256,186.6794 120.8586,201.2994 128.5106,211.6174 C132.2186,216.6154 137.6506,219.8704 143.8066,220.7824 C149.9616,221.6944 156.1046,220.1554 161.1026,216.4474 C171.4186,208.7934 173.5856,194.1734 165.9326,183.8564 C162.2246,178.8584 156.7926,175.6034 150.6366,174.6914 C149.4796,174.5194 148.3216,174.4344 147.1726,174.4344 M147.2766,224.1564 C145.9736,224.1564 144.6626,224.0594 143.3496,223.8644 C136.3706,222.8304 130.2116,219.1404 126.0076,213.4744 C117.3316,201.7764 119.7886,185.2014 131.4846,176.5234 C137.1516,172.3204 144.1176,170.5764 151.0936,171.6084 C158.0726,172.6434 164.2316,176.3334 168.4346,181.9994 C177.1116,193.6974 174.6546,210.2724 162.9596,218.9504 C158.3586,222.3634 152.9026,224.1564 147.2766,224.1564" id="Fill-73" fill="#1A988B" mask="url(#mask-2)"></path>
                    <path d="M92.5686,218.2791 C87.6076,218.2791 82.7956,219.8601 78.7366,222.8701 C68.4206,230.5241 66.2546,245.1441 73.9066,255.4621 C77.6146,260.4591 83.0466,263.7151 89.2026,264.6271 C95.3576,265.5391 101.5006,264.0001 106.4986,260.2921 C116.8146,252.6371 118.9816,238.0181 111.3286,227.7011 C107.6206,222.7021 102.1886,219.4481 96.0326,218.5361 C94.8756,218.3641 93.7176,218.2791 92.5686,218.2791 M92.6726,268.0001 C91.3696,268.0001 90.0586,267.9041 88.7456,267.7091 C81.7666,266.6751 75.6076,262.9851 71.4036,257.3181 C62.7276,245.6211 65.1846,229.0451 76.8806,220.3671 C82.5476,216.1641 89.5136,214.4201 96.4896,215.4531 C103.4686,216.4871 109.6276,220.1771 113.8306,225.8431 C122.5076,237.5421 120.0506,254.1171 108.3556,262.7941 C103.7546,266.2071 98.2976,268.0001 92.6726,268.0001" id="Fill-74" fill="#1A988B" mask="url(#mask-2)"></path>
                    <path d="M94.2537,3.7293 C91.8317,3.7293 89.3997,4.1213 87.0367,4.9103 C81.2797,6.8333 76.6167,10.8813 73.9057,16.3103 C71.1947,21.7413 70.7607,27.9013 72.6827,33.6573 C74.6057,39.4133 78.6537,44.0753 84.0837,46.7863 C89.5127,49.4973 95.6727,49.9323 101.4297,48.0093 C107.1847,46.0863 111.8477,42.0393 114.5597,36.6093 C117.2707,31.1793 117.7047,25.0193 115.7827,19.2623 C113.8597,13.5073 109.8117,8.8443 104.3817,6.1333 C101.1827,4.5363 97.7287,3.7293 94.2537,3.7293 M94.2087,52.2313 C90.2687,52.2313 86.3547,51.3163 82.7267,49.5053 C76.5697,46.4323 71.9797,41.1453 69.8007,34.6193 C67.6207,28.0933 68.1137,21.1093 71.1877,14.9533 C74.2607,8.7973 79.5467,4.2073 86.0737,2.0283 C92.5997,-0.1517 99.5837,0.3413 105.7397,3.4153 C111.8947,6.4883 116.4857,11.7743 118.6647,18.3003 C120.8447,24.8273 120.3517,31.8113 117.2777,37.9663 C114.2047,44.1223 108.9177,48.7123 102.3917,50.8923 C99.7117,51.7873 96.9537,52.2313 94.2087,52.2313" id="Fill-75" fill="#1A988B" mask="url(#mask-2)"></path>
                    <path d="M57.2009,78.4715 C27.3889,78.4715 3.1349,102.7265 3.1349,132.5385 C3.1349,162.3515 27.3889,186.6065 57.2009,186.6065 C87.0139,186.6065 111.2679,162.3515 111.2679,132.5385 C111.2679,102.7265 87.0139,78.4715 57.2009,78.4715 M57.2009,189.7405 C25.6599,189.7405 -0.0001,164.0795 -0.0001,132.5385 C-0.0001,100.9975 25.6599,75.3375 57.2009,75.3375 C88.7419,75.3375 114.4019,100.9975 114.4019,132.5385 C114.4019,164.0795 88.7419,189.7405 57.2009,189.7405" id="Fill-76" fill="#1A988B" mask="url(#mask-2)"></path>
                </g>
            </g>
        </g>
    </g>
</svg>
