<?xml version="1.0" encoding="UTF-8"?>
<svg width="403px" height="71px" viewBox="0 0 403 71" version="1.1" xmlns="http://www.w3.org/2000/svg" xmlns:xlink="http://www.w3.org/1999/xlink">
    <!-- Generator: sketchtool 50 (54983) - http://www.bohemiancoding.com/sketch -->
    <title>A7860E2C-1E02-4A4B-93CD-B596164685CE@1x</title>
    <desc>Created with sketchtool.</desc>
    <defs></defs>
    <g id="Children" stroke="none" stroke-width="1" fill="none" fill-rule="evenodd">
        <g id="AGBU-Artsakh-Fund-new-0" transform="translate(-69.000000, -64.000000)">
            <g id="logo-header.inspect" transform="translate(69.000000, 64.000000)">
                <text id="ARMENIAN-GENERAL-BEN" font-family="Montserrat_am3-Bold, Montserrat_am3" font-size="12" font-weight="bold" fill="#FFFFFF">
                    <tspan x="136" y="21">ARMENIAN GENERAL BENEVOLENT UNION</tspan>
                </text>
                <text id="Հայկական-Բարեգործակա" font-family="Montserrat_am3-Bold, Montserrat_am3" font-size="10" font-weight="bold" line-spacing="17" fill="#FFFFFF">
                    <tspan x="136" y="36">Հայկական Բարեգործական Ընդհանոր Միութիւն</tspan>
                    <tspan x="136" y="53">Promoting The Armenian Heritage Around The World</tspan>
                </text>
                <path d="M13.4838953,11.5473797 L0,45.9971274 L3.38698529,45.9971274 L7.39258442,35.7589056 L19.6159174,35.7589056 L23.6443546,45.9971274 L27.0308434,45.9971274 L13.4838953,11.5473797 Z M13.4903495,20.1777713 L18.3578376,32.5553835 L8.64421003,32.5553835 L13.4903495,20.1777713 Z M43.5790121,32.3700708 L53.0831252,32.3700708 C51.8885948,38.6810194 47.1402618,43.249604 41.4883356,43.249604 C34.9352986,43.249604 29.6050913,36.9877147 29.6050913,29.291473 C29.6050913,21.5952312 34.9352986,15.3333419 41.4883356,15.3333419 C45.4050649,15.3333419 49.0710718,17.6057487 51.2943084,21.4111324 L53.996648,19.7729562 C51.2009702,14.9873979 46.5246268,12.1298198 41.4883356,12.1298198 C33.201591,12.1298198 26.4603881,19.8285904 26.4603881,29.291473 C26.4603881,38.7543555 33.201591,46.4526203 41.4883356,46.4526203 C49.2964736,46.4526203 55.7293626,39.7668991 56.4502513,30.9008205 L56.591748,29.1665488 L43.5790121,29.1665488 L43.5790121,32.3700708 Z M68.0548711,42.7945663 L63.2434853,42.7945663 L63.2434853,29.9450744 L65.981075,29.9450744 L68.0548711,29.9450744 C71.5322158,29.9450744 74.3611577,32.8269293 74.3611577,36.3698204 C74.3611577,39.9122057 71.5322158,42.7945663 68.0548711,42.7945663 Z M63.2434853,15.3334936 L65.981075,15.3334936 C69.0686829,15.3334936 71.5803743,17.892164 71.5803743,21.037523 C71.5803743,24.1823762 69.0686829,26.7415523 65.981075,26.7415523 L63.2434853,26.7415523 L63.2434853,15.3334936 Z M71.9060651,27.5806182 C73.6377866,25.9520516 74.7250774,23.6219874 74.7250774,21.037523 C74.7250774,16.126029 70.8023904,12.1299716 65.981075,12.1299716 L60.0992786,12.1299716 L60.0992786,26.7415523 L60.0992786,29.9450744 L60.0992786,45.9975826 L68.0548711,45.9975826 C73.2659233,45.9975826 77.5058609,41.6783407 77.5058609,36.3698204 C77.5058609,32.4582258 75.2021945,29.0857779 71.9060651,27.5806182 Z M99.8552969,12.0221422 L99.8552969,35.4456847 C99.8552969,39.4978822 96.6192414,42.7944652 92.6414452,42.7944652 C88.6631524,42.7944652 85.4266005,39.4978822 85.4266005,35.4456847 L85.4266005,12.0221422 L82.2823939,12.0221422 L82.2823939,35.4456847 C82.2823939,41.2640171 86.9294449,45.9974815 92.6414452,45.9974815 C98.3534454,45.9974815 103,41.2640171 103,35.4456847 L103,12.0221422 L99.8552969,12.0221422 Z" id="Combined-Shape-Copy-2" fill="#FFFFFF"></path>
                <path d="M121.986047,0.5 L121.986047,70.5" id="Path-3" stroke="#FFFFFF"></path>
            </g>
        </g>
    </g>
</svg>