<?xml version="1.0" encoding="UTF-8"?>
<svg width="381px" height="26px" viewBox="0 0 381 26" version="1.1" xmlns="http://www.w3.org/2000/svg" xmlns:xlink="http://www.w3.org/1999/xlink">
    <!-- Generator: sketchtool 50 (54983) - http://www.bohemiancoding.com/sketch -->
    <title>CBE4539E-C230-49B2-8FDD-A646EE938911@1x</title>
    <desc>Created with sketchtool.</desc>
    <defs></defs>
    <g id="Children" stroke="none" stroke-width="1" fill="none" fill-rule="evenodd">
        <g id="AGBU-Artsakh-Fund-new-0" transform="translate(-150.000000, -3602.000000)">
            <g id="Group-7" transform="translate(0.000000, 3574.000000)">
                <g id="Group-3" transform="translate(150.000000, 26.000000)">
                    <g id="agbu-logo.inspect">
                        <text id="Armenian-General-Ben" font-family="TruenoRg, Trueno" font-size="12" font-weight="normal" fill="#626161">
                            <tspan x="80" y="12">ARMENIAN GENERAL BENEVOLENT UNION</tspan>
                            <tspan x="80" y="26" font-family="Mshtakan">ՀԱՅԿԱԿԱՆ</tspan>
                            <tspan x="144.388672" y="26" font-family="LucidaGrande, Lucida Grande"> </tspan>
                            <tspan x="148.185547" y="26" font-family="Mshtakan">ԲԱՐԵԳՈՐԾԱԿԱՆ</tspan>
                            <tspan x="240.939453" y="26" font-family="LucidaGrande, Lucida Grande"> </tspan>
                            <tspan x="244.736328" y="26" font-family="Mshtakan">ԸՆԴՀԱՆՈՒՐ ՄԻՈՒԹԻՒՆ</tspan>
                        </text>
                        <path d="M8.9019891,3 L0,25.6998635 L2.23606796,25.6998635 L4.88054117,18.9536243 L12.9503144,18.9536243 L15.6098652,25.6998635 L17.8456054,25.6998635 L8.9019891,3 Z M8.90625015,8.68679671 L12.1197374,16.8427376 L5.70685711,16.8427376 L8.90625015,8.68679671 Z M28.7706099,16.7206301 L35.04517,16.7206301 C34.256548,20.8790836 31.1217262,23.8894466 27.3903575,23.8894466 C23.0640806,23.8894466 19.5451088,19.7633196 19.5451088,14.6920594 C19.5451088,9.62079908 23.0640806,5.49467214 27.3903575,5.49467214 C29.9761593,5.49467214 32.3964358,6.99202198 33.8642036,9.49949141 L35.6482725,8.42005315 C33.8025823,5.26672038 30.7152876,3.38378546 27.3903575,3.38378546 C21.919497,3.38378546 17.4689941,8.45671206 17.4689941,14.6920594 C17.4689941,20.9274067 21.919497,26 27.3903575,26 C32.5452447,26 36.7922005,21.5945988 37.2681271,15.7525016 L37.3615424,14.6097434 L28.7706099,14.6097434 L28.7706099,16.7206301 Z M44.9294295,23.58961 L41.7529806,23.58961 L41.7529806,15.1227349 L43.5603213,15.1227349 L44.9294295,15.1227349 C47.2251521,15.1227349 49.0928032,17.0216664 49.0928032,19.3561725 C49.0928032,21.6903452 47.2251521,23.58961 44.9294295,23.58961 Z M41.7529806,5.49477212 L43.5603213,5.49477212 C45.5987421,5.49477212 47.2569461,7.18074871 47.2569461,9.25331017 C47.2569461,11.3255384 45.5987421,13.0118482 43.5603213,13.0118482 L41.7529806,13.0118482 L41.7529806,5.49477212 Z M47.4719653,13.5647312 C48.6152378,12.491625 49.3330608,10.9562832 49.3330608,9.25331017 C49.3330608,6.01699495 46.7433257,3.38388544 43.5603213,3.38388544 L39.6771936,3.38388544 L39.6771936,13.0118482 L39.6771936,15.1227349 L39.6771936,25.7001634 L44.9294295,25.7001634 C48.3697357,25.7001634 51.1689179,22.854099 51.1689179,19.3561725 C51.1689179,16.7787178 49.6480508,14.5565214 47.4719653,13.5647312 Z M65.9238853,3.31283381 L65.9238853,18.7472346 C65.9238853,21.4173363 63.7874604,23.5895434 61.1613424,23.5895434 C58.5348967,23.5895434 56.398144,21.4173363 56.398144,18.7472346 L56.398144,3.31283381 L54.3223571,3.31283381 L54.3223571,18.7472346 C54.3223571,22.5810901 57.3903131,25.7000968 61.1613424,25.7000968 C64.9323717,25.7000968 68,22.5810901 68,18.7472346 L68,3.31283381 L65.9238853,3.31283381 Z" id="Combined-Shape" fill="#4A4A4A"></path>
                    </g>
                </g>
            </g>
        </g>
    </g>
</svg>